<svg width="204" height="75" viewBox="0 0 204 75" fill="none" xmlns="http://www.w3.org/2000/svg">
<path d="M3 71.4999C3.5 52.5 3.25003 28 10.5 13.5C12.5 9.49997 19.1023 3.08392 26 4.99997C35 7.49999 43.5 24 25.5 36C18 41 5.5 39 32.5 39C47.7 39 49.9167 23.5 57.5 20C51 23 53.7 49.3 68.5 46.5C87 43 74.5 12.5 70 23C68.8004 25.7992 71.5 39 88 39C91.6205 39 96.4 38.1 98 26.5C99.6 14.9 106.667 12.3333 110 12.5C114 12.7 119.7 16.4 118.5 38C118.222 43 120.496 40.0146 123 30C124 26 128.28 9.87767 137.5 15C142 17.5 140.119 33.043 143 36.5C145.5 39.5 151 41.7917 154.5 34.5C160.5 22 168.657 21.3068 167 24C163 30.5 170.9 41.8 182.5 39C197 35.5 197 19 178 19.5M184 3C185.5 4.5 187 8 187 10.5C187 13.3284 190.167 6.5 192 3.5L189 12C193 10 198.2 7.5 201 9.5" stroke="white" stroke-width="6" stroke-linecap="round" stroke-linejoin="round"/>
</svg>
